# xmcd CD database file
#
# Track frame offsets:
#	150
#	14000
#	32332
#	47222
#	65560
#	84367
#	108855
#	122240
#	140307
#	158337
#	175907
#	204175
#
# Disc length: 3107 seconds
#
# Revision: 0
# Processed by: cddbd v1.5PL3 Copyright (c) Steve Scherf et al.
# Submitted via: CDex 1.51
#
DISCID=920c210c
DTITLE=Nancy Harrow - The Beatles and other Standards
DYEAR=1989
DGENRE=Jazz
TTITLE0=My foolish heart
TTITLE1=Drive my car
TTITLE2=Yesterday
TTITLE3=Got to get you into my life
TTITLE4=When the world was young
TTITLE5=Here comes the sun
TTITLE6=Blackbird
TTITLE7=Nature boy
TTITLE8=Because
TTITLE9=Yesterdays
TTITLE10=Something
TTITLE11=More than you know
EXTD=YEAR: 1989
EXTT0=
EXTT1=
EXTT2=
EXTT3=
EXTT4=
EXTT5=
EXTT6=
EXTT7=
EXTT8=
EXTT9=
EXTT10=
EXTT11=
PLAYORDER=
